HIERARCHY
ROOT hips
{
	OFFSET -0.003675 0.299928 -0.021708
	CHANNELS 6 Xposition Yposition Zposition Xrotation Yrotation Zrotation
	JOINT LowerBack
	{
		OFFSET 0.000919 0.177588 0.009275
		CHANNELS 3 Xrotation Yrotation Zrotation
		JOINT spine
		{
			OFFSET 0.000919 0.177588 0.009275
			CHANNELS 3 Xrotation Yrotation Zrotation
			JOINT chest
			{
				OFFSET 0.000456 0.100015 0.004638
				CHANNELS 3 Xrotation Yrotation Zrotation
				JOINT neck
				{
					OFFSET 0.000456 0.100015 0.004638
					CHANNELS 3 Xrotation Yrotation Zrotation
					JOINT head
					{
						OFFSET 0.000924 0.155147 0.009274
						CHANNELS 6 Xposition Yposition Zposition Xrotation Yrotation Zrotation
						End Site
						{
							OFFSET 0.000000 0.153400 0.000000
						}
					}
				}
				JOINT shoulder.L
				{
					OFFSET 0.019937 0.078966 0.057518
					CHANNELS 6 Xposition Yposition Zposition Yrotation Xrotation Zrotation
					JOINT upper_arm.L
					{
						OFFSET 0.177024 -0.020465 -0.095062
						CHANNELS 6 Xposition Yposition Zposition Xrotation Yrotation Zrotation
						JOINT forearm.L
						{
							OFFSET 0.247100 -0.135500 -0.061800
							CHANNELS 3 Xrotation Yrotation Zrotation
							JOINT hand.L
							{
								OFFSET 0.217000 -0.143000 0.039300
								CHANNELS 3 Xrotation Yrotation Zrotation
								JOINT palm.01.L
								{
									OFFSET 0.021770 -0.038291 0.012954
									CHANNELS 6 Xposition Yposition Zposition Yrotation Xrotation Zrotation
									JOINT f_index.01.L
									{
										OFFSET 0.053215 -0.044137 0.008236
										CHANNELS 3 Xrotation Yrotation Zrotation
										JOINT f_index.02.L
										{
											OFFSET 0.036108 -0.024723 -0.010656
											CHANNELS 3 Xrotation Yrotation Zrotation
											JOINT f_index.03.L
											{
												OFFSET 0.021342 -0.014948 -0.010846
												CHANNELS 3 Xrotation Yrotation Zrotation
												End Site
												{
													OFFSET 0.015600 -0.009860 -0.013421
												}
											}
										}
									}
									JOINT thumb.01.L
									{
										OFFSET -0.009090 -0.002348 -0.024223
										CHANNELS 6 Xposition Yposition Zposition Xrotation Yrotation Zrotation
										JOINT thumb.02.L
										{
											OFFSET 0.019713 -0.035076 -0.011120
											CHANNELS 3 Xrotation Yrotation Zrotation
											JOINT thumb.03.L
											{
												OFFSET 0.024877 -0.021748 -0.005176
												CHANNELS 3 Xrotation Yrotation Zrotation
												End Site
												{
													OFFSET 0.016125 -0.013029 -0.001569
												}
											}
										}
									}
								}
								JOINT palm.02.L
								{
									OFFSET 0.032823 -0.025104 0.012281
									CHANNELS 6 Xposition Yposition Zposition Yrotation Xrotation Zrotation
									JOINT f_middle.01.L
									{
										OFFSET 0.055723 -0.038469 0.008037
										CHANNELS 3 Xrotation Yrotation Zrotation
										JOINT f_middle.02.L
										{
											OFFSET 0.038167 -0.027473 -0.015582
											CHANNELS 3 Xrotation Yrotation Zrotation
											JOINT f_middle.03.L
											{
												OFFSET 0.021707 -0.016587 -0.017037
												CHANNELS 3 Xrotation Yrotation Zrotation
												End Site
												{
													OFFSET 0.014112 -0.010584 -0.014294
												}
											}
										}
									}
								}
								JOINT palm.03.L
								{
									OFFSET 0.039230 -0.011402 0.008390
									CHANNELS 6 Xposition Yposition Zposition Yrotation Xrotation Zrotation
									JOINT f_ring.01.L
									{
										OFFSET 0.061796 -0.031470 0.007910
										CHANNELS 3 Xrotation Yrotation Zrotation
										JOINT f_ring.02.L
										{
											OFFSET 0.033092 -0.023401 -0.019127
											CHANNELS 3 Xrotation Yrotation Zrotation
											JOINT f_ring.03.L
											{
												OFFSET 0.021392 -0.015362 -0.017824
												CHANNELS 3 Xrotation Yrotation Zrotation
												End Site
												{
													OFFSET 0.008670 -0.007297 -0.014686
												}
											}
										}
									}
								}
								JOINT palm.04.L
								{
									OFFSET 0.043417 0.002450 0.002889
									CHANNELS 6 Xposition Yposition Zposition Yrotation Xrotation Zrotation
									JOINT f_pinky.01.L
									{
										OFFSET 0.069986 -0.026156 0.003627
										CHANNELS 3 Xrotation Yrotation Zrotation
										JOINT f_pinky.02.L
										{
											OFFSET 0.018520 -0.012813 -0.016429
											CHANNELS 3 Xrotation Yrotation Zrotation
											JOINT f_pinky.03.L
											{
												OFFSET 0.013822 -0.009796 -0.014947
												CHANNELS 3 Xrotation Yrotation Zrotation
												End Site
												{
													OFFSET 0.007238 -0.006103 -0.011657
												}
											}
										}
									}
								}
							}
						}
					}
				}
				JOINT shoulder.R
				{
					OFFSET -0.016662 0.078957 0.057696
					CHANNELS 6 Xposition Yposition Zposition Yrotation Xrotation Zrotation
					JOINT upper_arm.R
					{
						OFFSET -0.176972 -0.020537 -0.095144
						CHANNELS 6 Xposition Yposition Zposition Xrotation Yrotation Zrotation
						JOINT forearm.R
						{
							OFFSET -0.247100 -0.135500 -0.061800
							CHANNELS 3 Xrotation Yrotation Zrotation
							JOINT hand.R
							{
								OFFSET -0.217000 -0.143000 0.039300
								CHANNELS 3 Xrotation Yrotation Zrotation
								JOINT palm.01.R
								{
									OFFSET -0.021773 -0.038278 0.012988
									CHANNELS 6 Xposition Yposition Zposition Yrotation Xrotation Zrotation
									JOINT f_index.01.R
									{
										OFFSET -0.053212 -0.044139 0.008249
										CHANNELS 3 Xrotation Yrotation Zrotation
										JOINT f_index.02.R
										{
											OFFSET -0.036049 -0.024835 -0.010634
											CHANNELS 3 Xrotation Yrotation Zrotation
											JOINT f_index.03.R
											{
												OFFSET -0.021371 -0.014881 -0.010866
												CHANNELS 3 Xrotation Yrotation Zrotation
												End Site
												{
													OFFSET -0.015584 -0.009883 -0.013422
												}
											}
										}
									}
									JOINT thumb.01.R
									{
										OFFSET 0.009113 -0.002381 -0.024211
										CHANNELS 6 Xposition Yposition Zposition Xrotation Yrotation Zrotation
										JOINT thumb.02.R
										{
											OFFSET -0.019694 -0.035097 -0.011088
											CHANNELS 3 Xrotation Yrotation Zrotation
											JOINT thumb.03.R
											{
												OFFSET -0.024867 -0.021762 -0.005168
												CHANNELS 3 Xrotation Yrotation Zrotation
												End Site
												{
													OFFSET -0.016120 -0.013036 -0.001565
												}
											}
										}
									}
								}
								JOINT palm.02.R
								{
									OFFSET -0.032828 -0.025095 0.012286
									CHANNELS 6 Xposition Yposition Zposition Yrotation Xrotation Zrotation
									JOINT f_middle.01.R
									{
										OFFSET -0.055721 -0.038472 0.008040
										CHANNELS 3 Xrotation Yrotation Zrotation
										JOINT f_middle.02.R
										{
											OFFSET -0.038101 -0.027593 -0.015557
											CHANNELS 3 Xrotation Yrotation Zrotation
											JOINT f_middle.03.R
											{
												OFFSET -0.021730 -0.016530 -0.017054
												CHANNELS 3 Xrotation Yrotation Zrotation
												End Site
												{
													OFFSET -0.014096 -0.010608 -0.014293
												}
											}
										}
									}
								}
								JOINT palm.03.R
								{
									OFFSET -0.039192 -0.011488 0.008390
									CHANNELS 6 Xposition Yposition Zposition Yrotation Xrotation Zrotation
									JOINT f_ring.01.R
									{
										OFFSET -0.061839 -0.031387 0.007876
										CHANNELS 3 Xrotation Yrotation Zrotation
										JOINT f_ring.02.R
										{
											OFFSET -0.033068 -0.023437 -0.019125
											CHANNELS 3 Xrotation Yrotation Zrotation
											JOINT f_ring.03.R
											{
												OFFSET -0.021371 -0.015393 -0.017822
												CHANNELS 3 Xrotation Yrotation Zrotation
												End Site
												{
													OFFSET -0.008654 -0.007321 -0.014684
												}
											}
										}
									}
								}
								JOINT palm.04.R
								{
									OFFSET -0.043421 0.002443 0.002845
									CHANNELS 6 Xposition Yposition Zposition Yrotation Xrotation Zrotation
									JOINT f_pinky.01.R
									{
										OFFSET -0.069983 -0.026169 0.003599
										CHANNELS 3 Xrotation Yrotation Zrotation
										JOINT f_pinky.02.R
										{
											OFFSET -0.018501 -0.012842 -0.016428
											CHANNELS 3 Xrotation Yrotation Zrotation
											JOINT f_pinky.03.R
											{
												OFFSET -0.013806 -0.009821 -0.014946
												CHANNELS 3 Xrotation Yrotation Zrotation
												End Site
												{
													OFFSET -0.007226 -0.006121 -0.011655
												}
											}
										}
									}
								}
							}
						}
					}
				}
			}
		}
	}
	JOINT pelvis.L
	{
		OFFSET 0.000000 0.000000 0.000000
		CHANNELS 6 Xposition Yposition Zposition Xrotation Yrotation Zrotation
		JOINT thigh.L
		{
			OFFSET 0.101675 0.001054 -0.000000
			CHANNELS 3 Xrotation Yrotation Zrotation
			JOINT shin.L
			{
				OFFSET 0.000000 -0.534800 0.041000
				CHANNELS 3 Xrotation Yrotation Zrotation
				JOINT foot.L
				{
					OFFSET 0.000000 -0.452000 -0.044800
					CHANNELS 3 Xrotation Yrotation Zrotation
					JOINT toe.L
					{
						OFFSET -0.000000 -0.068500 0.109600
						CHANNELS 3 Xrotation Yrotation Zrotation
						End Site
						{
							OFFSET -0.000000 0.000000 0.067200
						}
					}
				}
				JOINT heel.L
				{
					OFFSET 0.000000 -0.452000 -0.044800
					CHANNELS 3 Xrotation Yrotation Zrotation
					JOINT heel.02.L
					{
						OFFSET -0.038000 -0.085200 0.016200
						CHANNELS 6 Xposition Yposition Zposition Xrotation Yrotation Zrotation
						End Site
						{
							OFFSET 0.080000 -0.000000 0.000000
						}
					}
				}
			}
		}
	}
	JOINT pelvis.R
	{
		OFFSET 0.000000 0.000000 0.000000
		CHANNELS 6 Xposition Yposition Zposition Xrotation Yrotation Zrotation
		JOINT thigh.R
		{
			OFFSET -0.094325 0.001054 0.000000
			CHANNELS 3 Xrotation Yrotation Zrotation
			JOINT shin.R
			{
				OFFSET 0.000000 -0.534800 0.041000
				CHANNELS 3 Xrotation Yrotation Zrotation
				JOINT foot.R
				{
					OFFSET 0.000000 -0.452000 -0.044800
					CHANNELS 3 Xrotation Yrotation Zrotation
					JOINT toe.R
					{
						OFFSET -0.000000 -0.068500 0.109600
						CHANNELS 3 Xrotation Yrotation Zrotation
						End Site
						{
							OFFSET -0.000000 0.000000 0.067200
						}
					}
				}
				JOINT heel.R
				{
					OFFSET 0.000000 -0.452000 -0.044800
					CHANNELS 3 Xrotation Yrotation Zrotation
					JOINT heel.02.R
					{
						OFFSET 0.038000 -0.085200 0.016200
						CHANNELS 6 Xposition Yposition Zposition Xrotation Yrotation Zrotation
						End Site
						{
							OFFSET -0.080000 0.000000 -0.000000
						}
					}
				}
			}
		}
	}
}
MOTION
Frames: 4
Frame Time: 0.041667
-0.002013 0.213287 0.005148 36.834527 14.975164 95.947513 -0.000000 -0.000001 0.000001 -0.000000 -0.000002 0.000000 0.000000 -0.000000 0.000000 -0.000000 -0.000002 -0.000002 0.000924 0.155147 0.009274 -1.944718 0.010488 -2.802897 0.019937 0.078966 0.057518 -38.419923 11.933867 55.955799 0.177025 -0.020465 -0.095062 -53.115069 41.589818 -80.766031 -50.221988 -16.369523 -41.254503 0.000006 -0.000001 -0.000000 0.021770 -0.038291 0.012954 -0.000001 0.000005 -0.000004 -0.000000 -0.000003 -0.000002 -0.000000 -0.000004 0.000012 -0.000002 0.000001 -0.000000 -0.009090 -0.002348 -0.024223 0.000002 -0.000004 -0.000002 0.000000 0.000002 -0.000002 0.000004 -0.000002 0.000001 0.032823 -0.025104 0.012281 -0.000002 0.000004 0.000002 0.000002 0.000002 -0.000005 -0.000003 0.000002 -0.000004 -0.000001 -0.000007 0.000003 0.039230 -0.011402 0.008390 -0.000001 -0.000000 0.000003 0.000001 0.000000 -0.000000 0.000003 -0.000002 0.000001 0.000003 -0.000004 0.000003 0.043417 0.002450 0.002889 0.000000 -0.000000 -0.000003 -0.000000 -0.000004 0.000003 -0.000003 -0.000003 0.000001 0.000000 -0.000001 0.000000 -0.016662 0.078957 0.057696 -33.417086 11.868462 -34.567902 -0.176972 -0.020537 -0.095144 -45.184232 -14.889881 59.452562 -52.996978 7.097820 53.026402 0.000000 0.000001 -0.000002 -0.021773 -0.038278 0.012988 0.000000 -0.000002 0.000002 -0.000001 0.000003 0.000006 -0.000004 0.000001 -0.000009 -0.000002 0.000005 0.000003 0.009114 -0.002381 -0.024211 0.000001 0.000002 0.000001 -0.000001 0.000004 -0.000001 0.000002 -0.000002 -0.000003 -0.032828 -0.025095 0.012286 -0.000001 -0.000000 -0.000001 0.000001 0.000001 0.000006 -0.000003 -0.000003 -0.000002 -0.000001 0.000006 -0.000003 -0.039192 -0.011488 0.008390 -0.000001 0.000001 -0.000002 -0.000001 0.000001 -0.000002 -0.000001 -0.000003 0.000003 -0.000000 0.000003 -0.000001 -0.043421 0.002443 0.002845 -0.000000 -0.000001 0.000000 -0.000006 0.000006 0.000001 -0.000003 -0.000002 -0.000002 0.000000 0.000000 -0.000001 0.000000 0.000000 0.000000 -1.578715 1.036072 -13.743661 22.058419 -1.065443 -15.004590 14.138483 0.692511 -7.002627 0.000002 -0.000000 0.000001 -0.000002 -0.000004 0.000001 0.000003 -0.000002 0.000002 -0.038000 -0.085200 0.016200 0.000004 0.000000 0.000001 0.000000 0.000000 0.000000 -1.511604 1.020392 -12.510684 18.081486 0.309390 4.942698 16.471626 2.164723 -22.418245 0.000000 0.000000 -0.000002 0.000000 0.000003 0.000001 0.000005 0.000001 -0.000002 0.038000 -0.085200 0.016200 0.000003 0.000001 -0.000001 
-0.006035 0.211339 0.000296 65.555104 16.381953 85.558208 0.000001 0.000002 -0.000000 -0.000000 0.000000 -0.000000 -0.000002 0.000000 -0.000001 0.000002 -0.000000 -0.000000 0.000924 0.155148 0.009274 -5.143429 0.019144 3.800419 0.019937 0.078966 0.057518 -17.068545 6.627307 45.642268 0.177025 -0.020465 -0.095062 -46.525862 30.159506 -75.721963 -25.393011 -18.348593 -22.553242 0.000000 0.000001 -0.000003 0.021770 -0.038291 0.012954 -0.000001 -0.000002 -0.000002 0.000000 -0.000001 0.000001 -0.000000 0.000003 0.000005 -0.000002 0.000010 -0.000004 -0.009090 -0.002348 -0.024223 -0.000003 -0.000004 0.000002 0.000002 0.000004 0.000003 -0.000000 0.000001 -0.000002 0.032823 -0.025104 0.012281 -0.000001 -0.000002 0.000002 0.000001 0.000003 -0.000003 -0.000005 -0.000009 0.000006 -0.000000 0.000005 0.000001 0.039230 -0.011402 0.008390 0.000002 0.000000 0.000004 0.000000 0.000000 -0.000000 -0.000002 0.000001 0.000001 0.000003 -0.000000 0.000003 0.043417 0.002450 0.002889 0.000001 -0.000001 -0.000003 0.000001 -0.000001 -0.000000 0.000001 -0.000003 0.000003 -0.000001 -0.000002 -0.000002 -0.016662 0.078957 0.057696 -11.928155 6.643172 -35.993116 -0.176972 -0.020537 -0.095144 -39.398529 -17.495227 63.427876 -40.664634 4.488233 58.687273 -0.000002 0.000003 0.000001 -0.021773 -0.038278 0.012988 -0.000005 0.000002 -0.000002 0.000003 0.000004 -0.000004 -0.000001 -0.000004 -0.000005 -0.000000 -0.000003 -0.000000 0.009114 -0.002381 -0.024211 0.000001 -0.000000 -0.000001 -0.000000 -0.000009 -0.000002 0.000001 0.000002 -0.000006 -0.032828 -0.025095 0.012286 -0.000001 0.000001 -0.000001 0.000002 0.000003 0.000001 -0.000002 0.000001 0.000004 -0.000003 -0.000002 -0.000001 -0.039192 -0.011488 0.008390 -0.000001 0.000004 0.000003 -0.000002 0.000002 -0.000007 -0.000003 0.000002 -0.000000 0.000002 -0.000002 -0.000002 -0.043421 0.002443 0.002845 -0.000005 0.000004 -0.000005 -0.000003 0.000004 -0.000001 -0.000000 -0.000005 0.000002 -0.000003 -0.000000 0.000003 -0.000000 0.000000 -0.000000 -1.667919 1.357720 -17.189233 9.655460 -1.320520 -17.795810 10.034948 1.076919 -10.930764 -0.000002 -0.000001 -0.000001 -0.000004 0.000001 0.000000 0.000000 0.000001 0.000001 -0.038000 -0.085200 0.016200 -0.000001 0.000003 -0.000001 -0.000000 0.000000 -0.000000 -1.586984 1.333609 -15.956953 5.813315 0.397354 5.260891 11.506630 2.427359 -25.320855 -0.000002 -0.000000 -0.000002 0.000002 -0.000000 0.000003 0.000003 -0.000000 0.000000 0.038000 -0.085200 0.016200 -0.000001 -0.000002 -0.000000 
-0.006413 0.213118 -0.000055 65.606098 18.022149 85.771753 0.000002 0.000000 -0.000001 0.000003 0.000001 -0.000000 -0.000003 0.000001 -0.000001 -0.000001 -0.000002 0.000001 0.000924 0.155147 0.009274 -10.326254 0.035494 2.188807 0.019937 0.078966 0.057518 -14.645370 6.214629 43.708634 0.177024 -0.020465 -0.095062 -38.126813 25.193385 -76.186368 -26.179949 -18.065902 -24.570405 -0.000003 0.000000 -0.000000 0.021770 -0.038291 0.012954 0.000000 0.000001 0.000001 -0.000002 -0.000000 0.000005 -0.000002 -0.000000 0.000003 0.000000 0.000007 -0.000001 -0.009090 -0.002348 -0.024223 0.000002 0.000000 0.000001 0.000003 -0.000001 0.000003 -0.000002 0.000006 -0.000002 0.032823 -0.025104 0.012281 -0.000003 0.000001 0.000002 -0.000001 0.000001 -0.000005 -0.000003 -0.000005 0.000003 -0.000005 -0.000003 0.000001 0.039230 -0.011402 0.008390 -0.000002 -0.000000 0.000004 0.000003 -0.000000 -0.000000 0.000001 -0.000003 0.000003 0.000005 -0.000004 0.000003 0.043417 0.002450 0.002889 -0.000002 0.000002 -0.000002 -0.000003 -0.000007 -0.000003 -0.000003 -0.000001 -0.000001 0.000003 -0.000001 -0.000002 -0.016662 0.078956 0.057696 -8.692411 6.212749 -36.040057 -0.176972 -0.020537 -0.095144 -35.713973 -16.681923 63.269115 -37.573519 7.240692 54.208466 0.000002 0.000001 0.000002 -0.021773 -0.038278 0.012988 0.000001 -0.000001 -0.000003 -0.000001 0.000002 -0.000005 -0.000004 -0.000001 -0.000008 -0.000002 -0.000003 0.000002 0.009114 -0.002381 -0.024211 0.000001 0.000000 0.000003 0.000002 0.000001 0.000004 -0.000001 0.000002 -0.000001 -0.032828 -0.025095 0.012286 0.000004 -0.000000 0.000001 -0.000000 -0.000001 -0.000005 -0.000000 -0.000002 -0.000006 -0.000000 -0.000001 -0.000004 -0.039192 -0.011488 0.008390 0.000000 0.000001 0.000003 -0.000001 0.000005 0.000000 0.000004 -0.000001 -0.000002 0.000001 0.000004 -0.000000 -0.043421 0.002443 0.002845 -0.000000 0.000001 0.000002 -0.000005 0.000004 -0.000001 -0.000002 -0.000003 0.000000 -0.000002 0.000002 0.000003 0.000000 0.000000 -0.000000 -1.648038 1.351346 -17.184618 5.911387 -1.497200 -20.008996 10.713293 0.892436 -9.040204 -0.000002 -0.000002 0.000001 -0.000001 0.000000 -0.000004 0.000000 -0.000002 -0.000002 -0.038000 -0.085200 0.016200 0.000001 -0.000004 0.000001 -0.000000 0.000000 -0.000000 -1.567964 1.327494 -15.952303 2.028742 0.348876 4.354726 14.635110 2.086862 -21.569746 -0.000002 0.000000 0.000002 0.000002 -0.000000 -0.000000 0.000002 -0.000001 0.000003 0.038000 -0.085200 0.016200 0.000004 -0.000002 0.000007 
-0.006541 0.213759 -0.000035 64.722750 18.226129 85.941292 0.000002 -0.000001 -0.000002 0.000001 0.000003 -0.000000 -0.000000 -0.000001 -0.000000 0.000000 -0.000001 -0.000000 0.000924 0.155147 0.009274 -11.138050 0.038135 3.024025 0.019937 0.078966 0.057518 -11.399423 6.082730 43.496591 0.177025 -0.020465 -0.095062 -38.548119 26.006307 -77.640809 -28.769604 -19.061723 -25.583426 -0.000003 -0.000001 -0.000000 0.021770 -0.038291 0.012954 0.000001 0.000001 -0.000001 -0.000003 0.000001 0.000003 0.000001 -0.000000 0.000003 0.000001 0.000002 0.000002 -0.009090 -0.002348 -0.024224 0.000002 -0.000001 0.000001 0.000002 0.000003 -0.000000 -0.000000 -0.000000 -0.000002 0.032823 -0.025104 0.012281 0.000002 -0.000002 0.000005 -0.000000 0.000002 -0.000005 -0.000003 0.000002 -0.000000 0.000002 0.000001 0.000003 0.039230 -0.011402 0.008390 0.000001 0.000001 0.000009 -0.000000 0.000002 0.000001 -0.000000 0.000007 0.000003 0.000003 -0.000000 0.000003 0.043417 0.002450 0.002889 0.000001 -0.000000 0.000000 0.000001 -0.000004 0.000003 -0.000002 0.000004 -0.000003 -0.000005 0.000003 0.000001 -0.016662 0.078957 0.057696 -5.774356 5.765625 -36.286152 -0.176972 -0.020537 -0.095144 -32.742752 -17.442900 65.572774 -46.250185 6.760323 54.270088 0.000003 0.000001 0.000000 -0.021773 -0.038278 0.012988 -0.000003 0.000000 -0.000003 0.000002 0.000001 0.000001 -0.000003 -0.000000 -0.000001 -0.000002 -0.000002 -0.000002 0.009114 -0.002381 -0.024211 0.000004 -0.000002 -0.000001 0.000002 0.000002 -0.000001 0.000001 -0.000001 -0.000003 -0.032828 -0.025095 0.012286 0.000001 0.000001 -0.000001 -0.000001 0.000005 0.000001 0.000003 0.000003 -0.000003 0.000001 0.000003 -0.000002 -0.039192 -0.011488 0.008390 -0.000001 0.000003 -0.000002 0.000001 0.000005 0.000000 0.000001 -0.000003 -0.000000 -0.000005 -0.000003 -0.000003 -0.043421 0.002443 0.002844 -0.000000 0.000003 -0.000001 -0.000006 -0.000001 -0.000001 -0.000004 -0.000002 0.000004 -0.000002 -0.000001 -0.000002 -0.000000 0.000000 -0.000000 -1.661099 1.418617 -17.897017 5.999449 -1.541999 -20.639389 9.369917 0.790198 -7.996934 0.000000 -0.000001 -0.000003 -0.000003 -0.000001 -0.000001 0.000000 -0.000005 -0.000004 -0.038000 -0.085200 0.016200 0.000003 -0.000005 -0.000003 0.000000 0.000000 -0.000000 -1.578234 1.392816 -16.664868 -1.251935 0.357965 4.237201 19.881029 2.022544 -20.872742 -0.000002 -0.000001 -0.000001 0.000001 -0.000000 -0.000001 0.000002 -0.000001 -0.000003 0.038000 -0.085200 0.016200 -0.000004 0.000002 0.000003 
